<svg xmlns="http://www.w3.org/2000/svg" fill="none" viewBox="0 0 130 54"><path fill="#4BC3F6" d="M22.4 15.2a498.56 498.56 0 0 0-5.97 8 54.88 54.88 0 0 0-5.33 8.86h11.3V15.2ZM32.93 2.1v29.96h5.33v8.78h-5.33V52H22.4V40.84H.88v-7.85c1.05-2.11 2.37-4.49 3.96-7.13A136.95 136.95 0 0 1 16.29 9.38a90.01 90.01 0 0 1 6.48-7.28h10.15Zm50.57 24.84c0 8.4-1.61 14.86-4.83 19.37-3.16 4.47-7.56 6.7-13.17 6.7-5.62 0-10.03-2.23-13.25-6.7-3.17-4.51-4.75-10.97-4.75-19.37 0-4.17.4-7.87 1.22-11.08a24.93 24.93 0 0 1 3.67-8.14 16.2 16.2 0 0 1 5.7-5.04 15.79 15.79 0 0 1 7.4-1.73c5.62 0 10.02 2.26 13.18 6.77 3.22 4.46 4.83 10.87 4.83 19.22Zm-10.95 0c0-2.5-.12-4.75-.36-6.76a24.52 24.52 0 0 0-1.15-5.33 8.21 8.21 0 0 0-2.16-3.46 4.89 4.89 0 0 0-3.38-1.22c-1.35 0-2.47.4-3.39 1.22a9.28 9.28 0 0 0-2.16 3.46 24.52 24.52 0 0 0-1.15 5.33 57.64 57.64 0 0 0-.36 6.76c0 2.5.12 4.78.36 6.84.24 2.07.63 3.84 1.15 5.33a9.28 9.28 0 0 0 2.16 3.46 4.89 4.89 0 0 0 3.39 1.22c1.34 0 2.47-.4 3.38-1.22a8.21 8.21 0 0 0 2.16-3.46c.53-1.49.91-3.26 1.15-5.33.24-2.06.36-4.34.36-6.84Zm41.07-11.73a498.56 498.56 0 0 0-5.98 7.99 54.88 54.88 0 0 0-5.32 8.86h11.3V15.2Zm10.51-13.1v29.95h5.33v8.78h-5.33V52h-10.51V40.84H92.08v-7.85c1.06-2.11 2.38-4.49 3.96-7.13A136.9 136.9 0 0 1 107.5 9.38a90.01 90.01 0 0 1 6.48-7.28h10.15Z"/></svg>
