<svg width="100%" height="100%" viewBox="0 0 23 15" fill="none" xmlns="http://www.w3.org/2000/svg">
<path d="M2.21826 14.3657H0.832031V10.6553H1.72021C2.5918 10.1904 2.91553 9.12793 3.00684 7.55908L3.46338 0.0219727H11.042V10.6553H12.5361V14.3657H11.1499V12H2.21826V14.3657ZM4.40967 7.59229C4.32666 8.94531 4.16064 9.8501 3.57129 10.5557V10.6553H9.54785V1.3667H4.7998L4.40967 7.59229ZM18.1525 12.1577C15.6041 12.1577 14.027 10.3979 14.027 7.53418V7.51758C14.027 4.64551 15.6041 2.89404 18.1525 2.89404C20.7008 2.89404 22.278 4.64551 22.278 7.51758V7.53418C22.278 10.3979 20.7008 12.1577 18.1525 12.1577ZM18.1525 10.8794C19.8458 10.8794 20.8004 9.64258 20.8004 7.53418V7.51758C20.8004 5.40088 19.8458 4.17236 18.1525 4.17236C16.4591 4.17236 15.5045 5.40088 15.5045 7.51758V7.53418C15.5045 9.64258 16.4591 10.8794 18.1525 10.8794Z" fill="#C7C7C7"/>
</svg>
