<svg width="100%" height="100%" viewBox="0 0 40 40" fill="none" xmlns="http://www.w3.org/2000/svg">
<g clip-path="url(#clip0_88_2485)">
<path fill-rule="evenodd" clip-rule="evenodd" d="M40 20C40 24.6953 38.382 29.0126 35.6732 32.425C32.0096 37.0403 26.3504 40 20 40C13.6496 40 7.99044 37.0403 4.32675 32.425C1.61796 29.0126 0 24.6953 0 20C0 8.9543 8.9543 0 20 0C31.0457 0 40 8.9543 40 20ZM33.0614 29.2434C32.9759 29.1937 32.8888 29.1459 32.8 29.1C30.7333 28.0667 28.6333 27.2917 26.5 26.775C24.3667 26.2583 22.2 26 20 26C17.8 26 15.6333 26.2583 13.5 26.775C11.3667 27.2917 9.26667 28.0667 7.2 29.1C7.11124 29.1459 7.0241 29.1937 6.93858 29.2434C9.83712 33.3318 14.607 36 20 36C25.393 36 30.1629 33.3318 33.0614 29.2434ZM20 24C17.8 24 15.9167 23.2167 14.35 21.65C12.7833 20.0833 12 18.2 12 16C12 13.8 12.7833 11.9167 14.35 10.35C15.9167 8.78333 17.8 8 20 8C22.2 8 24.0833 8.78333 25.65 10.35C27.2167 11.9167 28 13.8 28 16C28 18.2 27.2167 20.0833 25.65 21.65C24.0833 23.2167 22.2 24 20 24Z" fill="currentColor"/>
</g>
<defs>
<clipPath id="clip0_88_2485">
<rect width="100%" height="100%" />
</clipPath>
</defs>
</svg>
