<svg width="100%" height="100%" viewBox="0 0 11 14" fill="none" xmlns="http://www.w3.org/2000/svg">
<path d="M5.43311 13.2822C2.1792 13.2822 0.145508 10.875 0.145508 7.02344V7.00684C0.145508 3.14697 2.1709 0.739746 5.4248 0.739746C7.94824 0.739746 9.91553 2.3252 10.2725 4.62451L10.2642 4.64111H8.76172L8.75342 4.62451C8.35498 3.08887 7.07666 2.11768 5.4248 2.11768C3.12549 2.11768 1.68115 4.01025 1.68115 7.00684V7.02344C1.68115 10.02 3.12549 11.9043 5.43311 11.9043C7.10156 11.9043 8.37158 11.0493 8.74512 9.67139L8.76172 9.65479H10.2725V9.67139C9.87402 11.8628 7.98145 13.2822 5.43311 13.2822Z" fill="#C7C7C7"/>
</svg>
