<svg width="30" height="20" viewBox="0 0 30 20" fill="none" xmlns="http://www.w3.org/2000/svg">
<path d="M2.99967 19.3337C2.26634 19.3337 1.63856 19.0725 1.11634 18.5503C0.594119 18.0281 0.333008 17.4003 0.333008 16.667V3.33366C0.333008 2.60033 0.594119 1.97255 1.11634 1.45033C1.63856 0.928103 2.26634 0.666992 2.99967 0.666992H16.333C17.0663 0.666992 17.6941 0.928103 18.2163 1.45033C18.7386 1.97255 18.9997 2.60033 18.9997 3.33366V16.667C18.9997 17.4003 18.7386 18.0281 18.2163 18.5503C17.6941 19.0725 17.0663 19.3337 16.333 19.3337H2.99967ZM2.99967 14.467C3.97745 13.8892 5.0219 13.4448 6.13301 13.1337C7.24412 12.8225 8.4219 12.667 9.66634 12.667C10.9108 12.667 12.0886 12.8225 13.1997 13.1337C14.3108 13.4448 15.3552 13.8892 16.333 14.467V3.33366H2.99967V14.467ZM9.66634 15.3337C8.75523 15.3337 7.86634 15.4448 6.99967 15.667C6.13301 15.8892 5.31079 16.2225 4.53301 16.667H14.7997C14.0219 16.2225 13.1997 15.8892 12.333 15.667C11.4663 15.4448 10.5775 15.3337 9.66634 15.3337ZM9.66634 11.667C8.66634 11.667 7.80523 11.3059 7.08301 10.5837C6.36079 9.86144 5.99967 9.00033 5.99967 8.00033C5.99967 7.00033 6.36079 6.13921 7.08301 5.41699C7.80523 4.69477 8.66634 4.33366 9.66634 4.33366C10.6663 4.33366 11.5275 4.69477 12.2497 5.41699C12.9719 6.13921 13.333 7.00033 13.333 8.00033C13.333 9.00033 12.9719 9.86144 12.2497 10.5837C11.5275 11.3059 10.6663 11.667 9.66634 11.667ZM9.66634 9.20033C9.99967 9.20033 10.283 9.08366 10.5163 8.85033C10.7497 8.61699 10.8663 8.33366 10.8663 8.00033C10.8663 7.66699 10.7497 7.38366 10.5163 7.15033C10.283 6.91699 9.99967 6.80032 9.66634 6.80032C9.33301 6.80032 9.04967 6.91699 8.81634 7.15033C8.58301 7.38366 8.46634 7.66699 8.46634 8.00033C8.46634 8.33366 8.58301 8.61699 8.81634 8.85033C9.04967 9.08366 9.33301 9.20033 9.66634 9.20033ZM21.6663 19.3337V0.666992H24.333V19.3337H21.6663ZM26.9997 19.3337V0.666992H29.6663V19.3337H26.9997Z" fill="currentColor"/>
</svg>
