<svg width="150" height="120" viewBox="0 0 150 120" fill="none" xmlns="http://www.w3.org/2000/svg">
    <mask id="path-1-inside-1_187_6977" fill="white">
        <path d="M0.83735 22.9413C0.374895 19.66 2.66029 16.6272 5.94193 16.1673L64.3709 7.97872C67.6526 7.51881 70.6877 9.80599 71.1502 13.0873L82.7335 95.275C83.196 98.5563 80.9106 101.589 77.629 102.049L19.2 110.238C15.9183 110.697 12.8831 108.41 12.4207 105.129L0.83735 22.9413Z"/>
    </mask>
    <path d="M0.83735 22.9413C0.374895 19.66 2.66029 16.6272 5.94193 16.1673L64.3709 7.97872C67.6526 7.51881 70.6877 9.80599 71.1502 13.0873L82.7335 95.275C83.196 98.5563 80.9106 101.589 77.629 102.049L19.2 110.238C15.9183 110.697 12.8831 108.41 12.4207 105.129L0.83735 22.9413Z" fill="white"/>
    <path d="M0.83735 22.9413L2.81799 22.6637L0.83735 22.9413ZM12.4207 105.129L10.44 105.407L12.4207 105.129ZM2.81799 22.6637C2.50969 20.4762 4.03329 18.4543 6.22105 18.1477L5.66282 14.1868C1.2873 14.8 -1.7599 18.8438 -1.14329 23.2189L2.81799 22.6637ZM6.22105 18.1477L64.65 9.95915L64.0918 5.99829L5.66282 14.1868L6.22105 18.1477ZM64.65 9.95915C66.8378 9.65254 68.8613 11.1773 69.1696 13.3648L73.1308 12.8097C72.5142 8.43465 68.4673 5.38508 64.0918 5.99829L64.65 9.95915ZM69.1696 13.3648L80.7529 95.5526L84.7142 94.9974L73.1308 12.8097L69.1696 13.3648ZM80.7529 95.5526C81.0612 97.7401 79.5376 99.762 77.3498 100.069L77.9081 104.029C82.2836 103.416 85.3308 99.3725 84.7142 94.9974L80.7529 95.5526ZM77.3498 100.069L18.9209 108.257L19.4791 112.218L77.9081 104.029L77.3498 100.069ZM18.9209 108.257C16.7331 108.564 14.7096 107.039 14.4013 104.851L10.44 105.407C11.0567 109.782 15.1036 112.831 19.4791 112.218L18.9209 108.257ZM14.4013 104.851L2.81799 22.6637L-1.14329 23.2189L10.44 105.407L14.4013 104.851Z" fill="#E0E0E0" mask="url(#path-1-inside-1_187_6977)"/>
    <path d="M55.6904 49.5591L24.9904 53.8615" stroke="#E0E0E0" stroke-width="2.1" stroke-linecap="round"/>
    <path d="M56.8066 57.4805L26.1067 61.7829" stroke="#E0E0E0" stroke-width="2.1" stroke-linecap="round"/>
    <path d="M57.9233 65.4023L27.2234 69.7048" stroke="#E0E0E0" stroke-width="2.1" stroke-linecap="round"/>
    <circle cx="1.5" cy="1.5" r="1.05" transform="matrix(0.990322 -0.138789 0.139558 0.990214 35.272 76.6548)" fill="#E0E0E0" stroke="#E0E0E0" stroke-width="0.9"/>
    <circle cx="1.5" cy="1.5" r="1.05" transform="matrix(0.990322 -0.138789 0.139558 0.990214 42.2041 75.6831)" fill="#E0E0E0" stroke="#E0E0E0" stroke-width="0.9"/>
    <circle cx="1.5" cy="1.5" r="1.05" transform="matrix(0.990322 -0.138789 0.139558 0.990214 49.1367 74.7119)" fill="#E0E0E0" stroke="#E0E0E0" stroke-width="0.9"/>
    <mask id="path-9-inside-2_187_6977" fill="white">
        <path fill-rule="evenodd" clip-rule="evenodd" d="M129.602 13.3797L72.8675 1.25404C69.627 0.561454 66.4355 2.62631 65.7392 5.86603L46.4066 95.8119C45.7103 99.0516 47.7728 102.239 51.0133 102.932L121.423 117.98C124.664 118.673 127.855 116.608 128.551 113.368L145.026 36.7193L144.648 36.9676L129.602 13.3797Z"/>
    </mask>
    <path fill-rule="evenodd" clip-rule="evenodd" d="M129.602 13.3797L72.8675 1.25404C69.627 0.561454 66.4355 2.62631 65.7392 5.86603L46.4066 95.8119C45.7103 99.0516 47.7728 102.239 51.0133 102.932L121.423 117.98C124.664 118.673 127.855 116.608 128.551 113.368L145.026 36.7193L144.648 36.9676L129.602 13.3797Z" fill="white"/>
    <path d="M72.8675 1.25404L72.4472 3.20939L72.8675 1.25404ZM129.602 13.3797L131.289 12.3035L130.839 11.5991L130.022 11.4243L129.602 13.3797ZM145.026 36.7193L146.982 37.1374L148.006 32.3733L143.929 35.0482L145.026 36.7193ZM144.648 36.9676L142.961 38.0438L144.05 39.7509L145.744 38.6387L144.648 36.9676ZM72.4472 3.20939L129.181 15.335L130.022 11.4243L73.2878 -0.701303L72.4472 3.20939ZM67.695 6.28404C68.1592 4.12423 70.2869 2.74766 72.4472 3.20939L73.2878 -0.701303C68.9671 -1.62475 64.7118 1.12839 63.7834 5.44802L67.695 6.28404ZM48.3625 96.2299L67.695 6.28404L63.7834 5.44802L44.4508 95.3939L48.3625 96.2299ZM51.4336 100.977C49.2732 100.515 47.8982 98.3897 48.3625 96.2299L44.4508 95.3939C43.5224 99.7135 46.2723 103.964 50.593 104.887L51.4336 100.977ZM121.843 116.025L51.4336 100.977L50.593 104.887L121.003 119.936L121.843 116.025ZM126.596 112.95C126.131 115.11 124.004 116.487 121.843 116.025L121.003 119.936C125.324 120.859 129.579 118.106 130.507 113.786L126.596 112.95ZM143.07 36.3013L126.596 112.95L130.507 113.786L146.982 37.1374L143.07 36.3013ZM143.929 35.0482L143.551 35.2964L145.744 38.6387L146.123 38.3905L143.929 35.0482ZM146.335 35.8914L131.289 12.3035L127.915 14.4559L142.961 38.0438L146.335 35.8914Z" fill="#E0E0E0" mask="url(#path-9-inside-2_187_6977)"/>
    <path d="M113.76 55.0015L83.4449 48.5223" stroke="#E0E0E0" stroke-width="2.1" stroke-linecap="round"/>
    <path d="M112.079 62.8232L81.7638 56.344" stroke="#E0E0E0" stroke-width="2.1" stroke-linecap="round"/>
    <path d="M110.398 70.6445L80.0826 64.1653" stroke="#E0E0E0" stroke-width="2.1" stroke-linecap="round"/>
    <circle cx="1.5" cy="1.5" r="1.05" transform="matrix(0.977914 0.209007 -0.210136 0.977672 85.2471 73.4497)" fill="#E0E0E0" stroke="#E0E0E0" stroke-width="0.9"/>
    <circle cx="1.5" cy="1.5" r="1.05" transform="matrix(0.977914 0.209007 -0.210136 0.977672 92.0923 74.9126)" fill="#E0E0E0" stroke="#E0E0E0" stroke-width="0.9"/>
    <circle cx="1.5" cy="1.5" r="1.05" transform="matrix(0.977914 0.209007 -0.210136 0.977672 98.938 76.376)" fill="#E0E0E0" stroke="#E0E0E0" stroke-width="0.9"/>
    <path d="M127 13L123.638 28.6428C122.941 31.8825 125.004 35.0702 128.244 35.7628L143.891 39.1069" stroke="#E0E0E0" stroke-width="2"/>
</svg>
