<svg width="28" height="21" viewBox="0 0 28 21" fill="none" xmlns="http://www.w3.org/2000/svg">
<path d="M16.668 3.33268V0.666016H27.3346V3.33268H16.668ZM16.668 8.66602V5.99935H27.3346V8.66602H16.668ZM16.668 13.9993V11.3327H27.3346V13.9993H16.668ZM8.66797 12.666C7.55686 12.666 6.61241 12.2771 5.83464 11.4993C5.05686 10.7216 4.66797 9.77713 4.66797 8.66602C4.66797 7.5549 5.05686 6.61046 5.83464 5.83268C6.61241 5.0549 7.55686 4.66602 8.66797 4.66602C9.77908 4.66602 10.7235 5.0549 11.5013 5.83268C12.2791 6.61046 12.668 7.5549 12.668 8.66602C12.668 9.77713 12.2791 10.7216 11.5013 11.4993C10.7235 12.2771 9.77908 12.666 8.66797 12.666ZM0.667969 20.666V18.1327C0.667969 17.666 0.77908 17.2216 1.0013 16.7994C1.22352 16.3771 1.53464 16.0438 1.93464 15.7993C2.93464 15.1993 3.99575 14.7494 5.11797 14.4494C6.24019 14.1494 7.42352 13.9993 8.66797 13.9993C9.91241 13.9993 11.0957 14.1494 12.218 14.4494C13.3402 14.7494 14.4013 15.1993 15.4013 15.7993C15.8013 16.0438 16.1124 16.3771 16.3346 16.7994C16.5569 17.2216 16.668 17.666 16.668 18.1327V20.666H0.667969ZM3.53464 17.9993H13.8013C13.0235 17.5549 12.2013 17.2216 11.3346 16.9993C10.468 16.7771 9.57908 16.666 8.66797 16.666C7.75686 16.666 6.86797 16.7771 6.0013 16.9993C5.13463 17.2216 4.31241 17.5549 3.53464 17.9993ZM8.66797 9.99935C9.04575 9.99935 9.36241 9.87157 9.61797 9.61602C9.87352 9.36046 10.0013 9.04379 10.0013 8.66602C10.0013 8.28824 9.87352 7.97157 9.61797 7.71602C9.36241 7.46046 9.04575 7.33268 8.66797 7.33268C8.29019 7.33268 7.97352 7.46046 7.71797 7.71602C7.46241 7.97157 7.33463 8.28824 7.33463 8.66602C7.33463 9.04379 7.46241 9.36046 7.71797 9.61602C7.97352 9.87157 8.29019 9.99935 8.66797 9.99935Z" fill="currentColor"/>
</svg>
