<svg width="24" height="24" viewBox="0 0 24 24" fill="none" xmlns="http://www.w3.org/2000/svg">
<path d="M7.50098 19.2505H20.999" stroke="currentColor" stroke-width="2" stroke-linecap="round"/>
<path d="M7.50079 19.2502C7.50079 18.0077 6.49358 17.0005 5.25113 17.0005C4.00867 17.0005 3.00146 18.0077 3.00146 19.2502C3.00146 20.4926 4.00867 21.4998 5.25113 21.4998C6.49358 21.4998 7.50079 20.4926 7.50079 19.2502Z" stroke="currentColor" stroke-width="2" stroke-linecap="round"/>
<path d="M16.4994 12H3.00146" stroke="currentColor" stroke-width="2" stroke-linecap="round"/>
<path d="M20.9988 11.9997C20.9988 10.7572 19.9917 9.75 18.7492 9.75C17.5067 9.75 16.4995 10.7572 16.4995 11.9997C16.4995 13.2422 17.5067 14.2493 18.7492 14.2493C19.9917 14.2493 20.9988 13.2422 20.9988 11.9997Z" stroke="currentColor" stroke-width="2" stroke-linecap="round"/>
<path d="M9.75045 4.75H3.00146" stroke="currentColor" stroke-width="2" stroke-linecap="round"/>
<path d="M14.25 4.75H20.999" stroke="currentColor" stroke-width="2" stroke-linecap="round"/>
<path d="M14.2498 4.74966C14.2498 3.50721 13.2426 2.5 12.0002 2.5C10.7577 2.5 9.75049 3.50721 9.75049 4.74966C9.75049 5.99212 10.7577 6.99933 12.0002 6.99933C13.2426 6.99933 14.2498 5.99212 14.2498 4.74966Z" stroke="currentColor" stroke-width="2" stroke-linecap="round"/>
</svg>
