<svg width="155" height="36" viewBox="0 0 155 36" fill="none" xmlns="http://www.w3.org/2000/svg">
<g clip-path="url(#clip0_409_9580)">
<path fill-rule="evenodd" clip-rule="evenodd" d="M5.14146 35.3788V24.8958C0.553931 25.7547 -2.56949 35.3788 1.13957 35.3788C3.4431 35.3788 5.14146 35.3788 5.14146 35.3788ZM39.7724 27.9802C38.9721 27.9802 38.3279 27.3359 38.3279 26.5356C38.3279 25.7352 38.9721 25.091 39.7724 25.091H152.977C153.777 25.091 154.422 25.7352 154.422 26.5356C154.422 27.3359 153.777 27.9802 152.977 27.9802H39.7724ZM44.4381 19.215L41.2561 14.7642V21.5186H38.2107V10.1962H41.2561L45.1994 15.994L49.1427 10.1962H52.2076V21.5186H49.1622V14.7642L45.9803 19.215H44.4381ZM57.615 10.2157V14.608H59.5476L63.2372 10.2157H66.2044V10.8989L62.0268 15.8769L66.2044 20.8548V21.5381H63.2372L59.6843 17.3215H57.615V21.5186H54.5697V10.1962H57.615V10.2157ZM79.5571 10.2157V21.5381H76.5117V12.9096H70.9481V21.5186H67.9028V10.1962H79.5571V10.2157ZM86.3115 19.0198C86.7605 19.0198 87.0728 18.9222 87.2095 18.7075C87.3656 18.4928 87.4437 18.1804 87.4632 17.7705L87.7951 10.2157H98.1024V21.5381H95.0571V12.9096H90.6257L90.411 18.1023C90.3719 18.7075 90.2938 19.215 90.1572 19.664C90.0205 20.113 89.8253 20.4839 89.552 20.7963C89.2787 21.1086 88.9078 21.3234 88.4784 21.4795C88.0294 21.6357 87.4828 21.7138 86.8386 21.7138C86.5848 21.7138 86.3115 21.6943 86.0577 21.6747C85.8039 21.6552 85.5697 21.6162 85.3745 21.5381V18.9808C85.5111 19.0003 85.6673 19.0198 85.843 19.0198C86.0187 19.0198 86.1748 19.0198 86.3115 19.0198ZM109.444 10.2157H112.49V21.5381H109.444V14.2566L103.51 21.5186H100.465V10.1962H103.51V17.4581L109.444 10.2157ZM116.531 23.3926L114.5 24.5834H113.817V18.8246H115.106C115.34 18.6684 115.496 18.4342 115.594 18.0828C115.672 17.7314 115.73 17.2824 115.75 16.7163L116.082 10.2157H126.545V18.8246H128.243V23.3926L126.213 24.5834H125.53V21.5186H116.511V23.3926H116.531ZM123.519 18.8246V12.9096H118.893L118.697 16.5797C118.678 17.0286 118.639 17.4386 118.58 17.8095C118.522 18.1804 118.424 18.5123 118.327 18.8246H123.519ZM140.425 12.9096H132.636V14.608H138.726V17.3019H132.636V18.8246H140.425V21.5186H129.59V10.1962H140.425V12.9096ZM153.934 14.608C153.934 15.1741 153.856 15.7012 153.719 16.1892C153.582 16.6773 153.348 17.1067 152.997 17.4776C152.665 17.8485 152.196 18.1414 151.611 18.3561C151.025 18.5708 150.303 18.6684 149.424 18.6684H148.956C148.351 18.6684 147.745 18.6684 147.179 18.6489C146.594 18.6294 146.027 18.5904 145.481 18.4928V21.5186H142.436V10.1962C143.412 10.079 144.427 10.0009 145.481 9.94237C146.555 9.88381 147.589 9.86429 148.604 9.86429H149.073C150.01 9.86429 150.81 9.9619 151.415 10.1766C152.04 10.3914 152.528 10.6842 152.899 11.0551C153.27 11.426 153.524 11.8555 153.68 12.3435C153.836 12.8315 153.895 13.3586 153.895 13.9052V14.608H153.934ZM148.487 15.955C149.092 15.955 149.541 15.9159 149.873 15.8378C150.205 15.7598 150.439 15.6426 150.595 15.4865C150.752 15.3303 150.83 15.1546 150.849 14.9594C150.869 14.7642 150.888 14.5299 150.888 14.2761C150.888 14.0223 150.869 13.8076 150.849 13.5929C150.83 13.3781 150.752 13.2024 150.595 13.0658C150.439 12.9096 150.225 12.812 149.912 12.7144C149.6 12.6363 149.17 12.5973 148.604 12.5973C148.253 12.5973 147.765 12.6168 147.199 12.6363C146.613 12.6558 146.047 12.6949 145.481 12.7535V15.8183C146.008 15.8769 146.516 15.9354 146.984 15.9354C147.453 15.9354 147.96 15.955 148.487 15.955ZM29.6018 35.3788V24.8958C34.1893 25.7547 37.3127 35.3788 33.6037 35.3788C31.3001 35.3788 29.6018 35.3788 29.6018 35.3788ZM26.0294 35.3788V23.9197C26.0294 23.9197 24.9166 23.6464 23.7454 23.3731C21.6566 26.8284 17.3814 26.8479 17.3814 26.8479C17.3814 26.8479 13.1062 26.8284 11.0174 23.3731C9.8266 23.6464 8.7334 23.9197 8.7334 23.9197V35.3788H26.0294ZM17.3619 25.1691C11.0564 25.1691 9.29952 14.7837 9.31904 13.1048C10.9979 13.1829 17.3619 13.3196 17.3619 13.3196C17.3619 13.3196 23.7258 13.1634 25.4047 13.1048C25.4242 14.7837 23.6868 25.1691 17.3619 25.1691ZM17.3619 11.6212C13.4576 11.6212 6.76174 11.3284 6.76174 11.3284V8.12688C6.76174 8.12688 7.87446 8.12688 8.69436 8.12688C9.47521 4.82776 11.2321 2.54376 13.36 1.33343L13.2038 6.5066C13.1843 6.87751 13.4771 7.18985 13.848 7.18985C14.2189 7.20938 14.5313 6.91655 14.5313 6.54565L14.7265 0.689224C16.4444 0.0840606 18.2989 0.0840606 20.0168 0.689224L20.1925 6.54565C20.212 6.91655 20.5048 7.20938 20.8757 7.18985C21.2466 7.17033 21.5394 6.87751 21.5199 6.5066L21.3638 1.33343C23.4916 2.56328 25.2485 4.82776 26.0294 8.12688C26.8493 8.12688 27.962 8.12688 27.962 8.12688V11.3284C27.962 11.3284 21.2661 11.6212 17.3619 11.6212Z" fill="#4BC3F6"/>
</g>
<defs>
<clipPath id="clip0_409_9580">
<rect width="155" height="35.4286" fill="white"/>
</clipPath>
</defs>
</svg>
