<svg width="95" height="34" viewBox="0 0 95 34" fill="none" xmlns="http://www.w3.org/2000/svg">
<path d="M0.00146484 1.92773C0.00146484 1.54492 0.131348 1.22363 0.391113 0.963867C0.664551 0.69043 0.992676 0.553711 1.37549 0.553711H13.311C13.6938 0.553711 14.022 0.683594 14.2954 0.943359C14.5552 1.2168 14.6851 1.54492 14.6851 1.92773C14.6851 2.31055 14.5483 2.63867 14.2749 2.91211C14.0151 3.17188 13.6938 3.30176 13.311 3.30176H8.73779V11.6074C8.65576 12.4277 8.20459 12.8721 7.38428 12.9404C7.00146 12.9404 6.6665 12.8174 6.37939 12.5713C6.10596 12.3115 5.96924 11.9902 5.96924 11.6074V3.30176H1.37549C0.992676 3.30176 0.671387 3.16504 0.411621 2.8916C0.138184 2.63184 0.00146484 2.31055 0.00146484 1.92773ZM20.6528 0.553711H21.5962H28.5688C28.9517 0.567383 29.2661 0.710937 29.5122 0.984375C29.772 1.25781 29.9019 1.58594 29.9019 1.96875C29.8335 2.78906 29.3892 3.2334 28.5688 3.30176H21.3501C20.8306 3.3291 20.3999 3.52734 20.0581 3.89648C19.7163 4.26562 19.4634 4.68945 19.2993 5.16797C19.1489 5.63281 19.0737 6.11133 19.0737 6.60352C19.0737 7.0957 19.1489 7.58105 19.2993 8.05957C19.4634 8.52441 19.7163 8.94141 20.0581 9.31055C20.3999 9.67969 20.8306 9.87793 21.3501 9.90527H28.5688C28.9517 9.91895 29.2661 10.0625 29.5122 10.3359C29.772 10.6094 29.9019 10.9375 29.9019 11.3203C29.8882 11.6895 29.7515 12.0039 29.4917 12.2637C29.2456 12.5098 28.938 12.6396 28.5688 12.6533H21.0425H20.6528C19.6958 12.5986 18.9028 12.2363 18.2739 11.5664C17.6587 10.8828 17.2144 10.1104 16.9409 9.24902C16.6812 8.3877 16.5513 7.50586 16.5513 6.60352C16.5513 5.70117 16.688 4.81934 16.9614 3.95801C17.2349 3.09668 17.6792 2.33105 18.2944 1.66113C18.9097 0.977539 19.6958 0.608398 20.6528 0.553711ZM29.8608 6.52148C29.8608 6.9043 29.7241 7.22559 29.4507 7.48535C29.1909 7.75879 28.8696 7.89551 28.4868 7.89551H22.2935C21.9106 7.89551 21.5825 7.76562 21.3091 7.50586C21.0493 7.23242 20.9194 6.9043 20.9194 6.52148C20.9194 6.13867 21.0493 5.81055 21.3091 5.53711C21.5825 5.27734 21.9106 5.14746 22.2935 5.14746H28.4868C28.8696 5.14746 29.1909 5.28418 29.4507 5.55762C29.7241 5.81738 29.8608 6.13867 29.8608 6.52148ZM37.6333 6.31641C37.2642 5.61914 36.7993 4.95605 36.2388 4.32715C35.6782 3.69824 35.1382 3.35645 34.6187 3.30176H32.896C32.5132 3.30176 32.1919 3.16504 31.9321 2.8916C31.6587 2.63184 31.522 2.31055 31.522 1.92773C31.522 1.54492 31.6519 1.22363 31.9116 0.963867C32.1851 0.69043 32.5132 0.553711 32.896 0.553711H34.6187V0.574219H34.8237C35.8081 0.628906 36.8267 1.18262 37.8794 2.23535C38.3989 2.76855 38.8774 3.37012 39.3149 4.04004C39.7524 3.37012 40.2378 2.76855 40.771 2.23535C41.8101 1.18262 42.8218 0.628906 43.8062 0.574219H44.0112V0.553711H45.7339C46.1167 0.553711 46.438 0.69043 46.6978 0.963867C46.9712 1.22363 47.1079 1.54492 47.1079 1.92773C47.1079 2.31055 46.9712 2.63184 46.6978 2.8916C46.438 3.16504 46.1167 3.30176 45.7339 3.30176H44.0112C43.4917 3.35645 42.9517 3.69824 42.3911 4.32715C41.8306 4.95605 41.3657 5.61914 40.9966 6.31641C40.9146 6.4668 40.8325 6.61035 40.7505 6.74707C40.7778 6.78809 40.8052 6.8291 40.8325 6.87012C41.2017 7.58105 41.6665 8.25098 42.2271 8.87988C42.7876 9.50879 43.3276 9.84375 43.8472 9.88477H45.5698C45.9526 9.88477 46.2739 10.0215 46.5337 10.2949C46.8071 10.5547 46.9438 10.876 46.9438 11.2588C46.9438 11.6416 46.8071 11.9697 46.5337 12.2432C46.2739 12.5029 45.9526 12.6328 45.5698 12.6328H43.6421C42.6577 12.5781 41.646 12.0312 40.6069 10.9922C40.1421 10.5137 39.7114 9.99414 39.3149 9.43359C38.9185 9.99414 38.4878 10.5137 38.0229 10.9922C36.9839 12.0312 35.9722 12.5781 34.9878 12.6328H33.0601C32.6772 12.6328 32.3491 12.5029 32.0757 12.2432C31.8159 11.9697 31.686 11.6416 31.686 11.2588C31.686 10.876 31.8228 10.5547 32.0962 10.2949C32.356 10.0215 32.6772 9.88477 33.0601 9.88477H34.7827C35.3022 9.84375 35.8423 9.50879 36.4028 8.87988C36.9634 8.25098 37.4282 7.58105 37.7974 6.87012C37.8247 6.8291 37.8521 6.78809 37.8794 6.74707C37.7974 6.61035 37.7153 6.4668 37.6333 6.31641ZM55.7622 0C56.4731 0 57.1704 0.0820312 57.854 0.246094C58.5513 0.410156 59.2144 0.65625 59.8433 0.984375C60.4722 1.29883 61.0259 1.72266 61.5044 2.25586C61.9966 2.78906 62.2632 3.4248 62.3042 4.16309V5.02441V11.5664C62.2222 12.3867 61.771 12.8311 60.9507 12.8994C60.5679 12.8994 60.2329 12.7764 59.9458 12.5303C59.6724 12.2705 59.5356 11.9492 59.5356 11.5664V4.79883C59.5083 4.375 59.3442 4.02637 59.0435 3.75293C58.7563 3.46582 58.4282 3.24023 58.0591 3.07617C57.7036 2.91211 57.3276 2.78906 56.9312 2.70703C56.5483 2.625 56.1587 2.58398 55.7622 2.58398C55.3657 2.58398 54.9692 2.625 54.5728 2.70703C54.1899 2.78906 53.814 2.91211 53.4448 3.07617C53.0894 3.24023 52.7612 3.46582 52.4604 3.75293C52.1733 4.02637 52.0161 4.375 51.9888 4.79883V11.5664C51.9204 12.3867 51.4761 12.8311 50.6558 12.8994C50.2729 12.8994 49.938 12.7764 49.6509 12.5303C49.3774 12.2705 49.2407 11.9492 49.2407 11.5664V5.02441V4.16309C49.2817 3.4248 49.5415 2.78906 50.02 2.25586C50.4985 1.72266 51.0522 1.29883 51.6812 0.984375C52.3101 0.65625 52.9663 0.410156 53.6499 0.246094C54.3472 0.0820312 55.0513 0 55.7622 0ZM64.4575 11.2793C64.4575 10.8965 64.5874 10.5752 64.8472 10.3154C65.1206 10.042 65.4487 9.90527 65.8315 9.90527H69.769V3.30176H65.8315C65.4487 3.30176 65.1274 3.16504 64.8677 2.8916C64.5942 2.63184 64.4575 2.31055 64.4575 1.92773C64.4575 1.54492 64.5874 1.22363 64.8472 0.963867C65.1206 0.69043 65.4487 0.553711 65.8315 0.553711H76.4546C76.8374 0.553711 77.1655 0.683594 77.439 0.943359C77.6987 1.2168 77.8286 1.54492 77.8286 1.92773C77.8286 2.31055 77.6919 2.63867 77.4185 2.91211C77.1587 3.17188 76.8374 3.30176 76.4546 3.30176H72.5376V9.90527H76.4546C76.8374 9.90527 77.1655 10.0352 77.439 10.2949C77.6987 10.5684 77.8286 10.8965 77.8286 11.2793C77.8286 11.6621 77.6919 11.9902 77.4185 12.2637C77.1587 12.5234 76.8374 12.6533 76.4546 12.6533H65.8315C65.4487 12.6533 65.1274 12.5166 64.8677 12.2432C64.5942 11.9834 64.4575 11.6621 64.4575 11.2793ZM81.356 0.225586C81.7251 0.239258 82.0396 0.375977 82.2993 0.635742C82.5591 0.881836 82.6958 1.18945 82.7095 1.55859V11.6074C82.6274 12.4277 82.1763 12.8721 81.356 12.9404C80.9731 12.9404 80.6382 12.8174 80.3511 12.5713C80.0776 12.3115 79.9409 11.9902 79.9409 11.6074V1.55859C79.9546 1.17578 80.0981 0.861328 80.3716 0.615234C80.645 0.355469 80.9731 0.225586 81.356 0.225586ZM84.8628 3.83496C85.7788 3.21973 87.0161 2.59766 88.5747 1.96875L91.938 0.533203C92.0884 0.464844 92.2524 0.423828 92.4302 0.410156C92.813 0.382812 93.1411 0.499023 93.4146 0.758789C93.688 1.00488 93.8247 1.32617 93.8247 1.72266C93.8247 2.17383 93.729 2.50879 93.5376 2.72754C93.3599 2.93262 93.1274 3.10352 92.8403 3.24023L89.9692 4.32715C89.4087 4.5459 88.8755 4.76465 88.3696 4.9834C87.8774 5.18848 87.4263 5.42773 87.0161 5.70117C86.606 5.94727 86.3872 6.22754 86.3599 6.54199C86.3872 6.84277 86.606 7.12305 87.0161 7.38281C87.4263 7.65625 87.8774 7.90234 88.3696 8.12109C88.8755 8.32617 89.4087 8.53809 89.9692 8.75684L93.1685 9.92578C93.4556 10.0625 93.688 10.2402 93.8657 10.459C94.0571 10.6641 94.1528 10.9922 94.1528 11.4434C94.1528 11.8398 94.0161 12.168 93.7427 12.4277C93.4692 12.6738 93.1411 12.7832 92.7583 12.7559C92.5806 12.7422 92.4165 12.7012 92.2661 12.6328L88.5747 11.1152C87.0161 10.4863 85.772 9.86426 84.8423 9.24902C83.9263 8.62012 83.4614 7.71777 83.4478 6.54199C83.4614 5.36621 83.9331 4.46387 84.8628 3.83496ZM21.9141 21.5537C22.6113 21.5674 23.2334 21.7861 23.7803 22.21C24.3271 22.6338 24.7646 23.1396 25.0928 23.7275C25.4346 24.3154 25.6875 24.9375 25.8516 25.5938C26.0156 26.25 26.0977 26.9199 26.0977 27.6035C26.0977 28.5059 25.9541 29.3945 25.667 30.2695C25.3936 31.1309 24.9355 31.8965 24.293 32.5664C23.6641 33.2363 22.8711 33.5986 21.9141 33.6533H14.7568C13.7998 33.6123 13 33.2568 12.3574 32.5869C11.7148 31.917 11.2568 31.1445 10.9834 30.2695C10.7236 29.3945 10.5938 28.5059 10.5938 27.6035C10.5938 26.7012 10.7305 25.8193 11.0039 24.958C11.2773 24.083 11.7285 23.3105 12.3574 22.6406C13 21.957 13.7998 21.5947 14.7568 21.5537H15.1465H21.5244H21.9141ZM21.2168 30.9053C21.7363 30.8779 22.167 30.6865 22.5088 30.3311C22.8643 29.9619 23.1172 29.5381 23.2676 29.0596C23.418 28.5811 23.4932 28.0957 23.4932 27.6035C23.4932 27.1113 23.4111 26.6328 23.2471 26.168C23.0967 25.6895 22.8506 25.2656 22.5088 24.8965C22.167 24.5273 21.7363 24.3291 21.2168 24.3018H15.3926C14.873 24.3291 14.4424 24.5273 14.1006 24.8965C13.7588 25.2656 13.5059 25.6895 13.3418 26.168C13.1914 26.6328 13.1162 27.1113 13.1162 27.6035C13.1162 28.0957 13.1914 28.5811 13.3418 29.0596C13.4922 29.5381 13.7383 29.9619 14.0801 30.3311C14.4355 30.6865 14.873 30.8779 15.3926 30.9053H21.2168ZM34.875 24.0352C35.5859 24.0352 36.2832 24.1172 36.9668 24.2812C37.6641 24.4453 38.3271 24.6914 38.9561 25.0195C39.585 25.334 40.1387 25.7578 40.6172 26.291C41.1094 26.8242 41.376 27.46 41.417 28.1982V29.0596V32.5664C41.335 33.3867 40.8838 33.8311 40.0635 33.8994C39.6807 33.8994 39.3457 33.7764 39.0586 33.5303C38.7852 33.2705 38.6484 32.9492 38.6484 32.5664V31.6641V28.834C38.6211 28.4102 38.457 28.0615 38.1562 27.7881C37.8691 27.501 37.541 27.2754 37.1719 27.1113C36.8164 26.9473 36.4404 26.8242 36.0439 26.7422C35.6611 26.6602 35.2715 26.6191 34.875 26.6191C34.4785 26.6191 34.082 26.6602 33.6855 26.7422C33.3027 26.8242 32.9268 26.9473 32.5576 27.1113C32.2021 27.2754 31.874 27.501 31.5732 27.7881C31.2861 28.0615 31.1289 28.4102 31.1016 28.834V31.6641V32.5664C31.0332 33.3867 30.5889 33.8311 29.7686 33.8994C29.3857 33.8994 29.0508 33.7764 28.7637 33.5303C28.4902 33.2705 28.3535 32.9492 28.3535 32.5664V29.0596V28.1982C28.3945 27.46 28.6543 26.8242 29.1328 26.291C29.6113 25.7578 30.165 25.334 30.7939 25.0195C31.4229 24.6914 32.0791 24.4453 32.7627 24.2812C33.46 24.1172 34.1641 24.0352 34.875 24.0352ZM45.4365 21.2256C45.8057 21.2393 46.1201 21.376 46.3799 21.6357C46.6396 21.8818 46.7764 22.1895 46.79 22.5586V32.6074C46.708 33.4277 46.2568 33.8721 45.4365 33.9404C45.0537 33.9404 44.7188 33.8174 44.4316 33.5713C44.1582 33.3115 44.0215 32.9902 44.0215 32.6074V22.5586C44.0352 22.1758 44.1787 21.8613 44.4521 21.6152C44.7256 21.3555 45.0537 21.2256 45.4365 21.2256ZM50.8096 24.1377C51.1787 24.1514 51.4932 24.2881 51.7529 24.5479C52.0127 24.7939 52.1494 25.1016 52.1631 25.4707V32.5664C52.0811 33.3867 51.6299 33.8311 50.8096 33.8994C50.4268 33.8994 50.0918 33.7764 49.8047 33.5303C49.5312 33.2705 49.3945 32.9492 49.3945 32.5664V25.4707C49.4082 25.0879 49.5518 24.7734 49.8252 24.5273C50.0986 24.2676 50.4268 24.1377 50.8096 24.1377ZM49.0869 21.4717C49.0869 21.0889 49.251 20.7607 49.5791 20.4873C49.9072 20.2139 50.3037 20.0771 50.7686 20.0771C51.2334 20.0771 51.6299 20.2139 51.958 20.4873C52.2861 20.7607 52.4502 21.0889 52.4502 21.4717C52.4502 21.8682 52.2861 22.2031 51.958 22.4766C51.6299 22.75 51.2334 22.8867 50.7686 22.8867C50.3037 22.8867 49.9072 22.75 49.5791 22.4766C49.251 22.2031 49.0869 21.8682 49.0869 21.4717ZM61.207 24.0352C61.918 24.0352 62.6152 24.1172 63.2988 24.2812C63.9961 24.4453 64.6592 24.6914 65.2881 25.0195C65.917 25.334 66.4707 25.7578 66.9492 26.291C67.4414 26.8242 67.708 27.46 67.749 28.1982V29.0596V32.5664C67.667 33.3867 67.2158 33.8311 66.3955 33.8994C66.0127 33.8994 65.6777 33.7764 65.3906 33.5303C65.1172 33.2705 64.9805 32.9492 64.9805 32.5664V31.6641V28.834C64.9531 28.4102 64.7891 28.0615 64.4883 27.7881C64.2012 27.501 63.873 27.2754 63.5039 27.1113C63.1484 26.9473 62.7725 26.8242 62.376 26.7422C61.9932 26.6602 61.6035 26.6191 61.207 26.6191C60.8105 26.6191 60.4141 26.6602 60.0176 26.7422C59.6348 26.8242 59.2588 26.9473 58.8896 27.1113C58.5342 27.2754 58.2061 27.501 57.9053 27.7881C57.6182 28.0615 57.4609 28.4102 57.4336 28.834V31.6641V32.5664C57.3652 33.3867 56.9209 33.8311 56.1006 33.8994C55.7178 33.8994 55.3828 33.7764 55.0957 33.5303C54.8223 33.2705 54.6855 32.9492 54.6855 32.5664V29.0596V28.1982C54.7266 27.46 54.9863 26.8242 55.4648 26.291C55.9434 25.7578 56.4971 25.334 57.126 25.0195C57.7549 24.6914 58.4111 24.4453 59.0947 24.2812C59.792 24.1172 60.4961 24.0352 61.207 24.0352ZM74.5576 33.6533C73.3545 33.6123 72.4453 33.332 71.8301 32.8125C71.2148 32.2793 70.7705 31.6846 70.4971 31.0283C70.2236 30.3584 70.0869 29.6816 70.0869 28.998C70.0869 28.2871 70.2168 27.6035 70.4766 26.9473C70.75 26.2773 71.1943 25.6826 71.8096 25.1631C72.4385 24.6299 73.2314 24.3564 74.1885 24.3428H81.9814C82.3643 24.3428 82.6855 24.4727 82.9453 24.7324C83.2188 24.9785 83.3555 25.2793 83.3555 25.6348C83.3555 26.0039 83.2188 26.3184 82.9453 26.5781C82.6855 26.8242 82.3643 26.9473 81.9814 26.9473H74.3115C74.0107 26.9473 73.7441 27.0498 73.5117 27.2549C73.293 27.46 73.1289 27.7266 73.0195 28.0547C72.9238 28.3828 72.876 28.7041 72.876 29.0186C72.876 29.3604 72.9238 29.6953 73.0195 30.0234C73.1289 30.3516 73.293 30.6182 73.5117 30.8232C73.7441 31.0146 74.0107 31.1172 74.3115 31.1309H81.9814C82.3643 31.1309 82.6855 31.2539 82.9453 31.5C83.2188 31.7461 83.3555 32.04 83.3555 32.3818C83.3555 32.7373 83.2188 33.0381 82.9453 33.2842C82.6855 33.5303 82.3643 33.6533 81.9814 33.6533H74.5576ZM83.1094 28.957C83.1094 29.2168 82.9932 29.4424 82.7607 29.6338C82.5557 29.8115 82.2959 29.9004 81.9814 29.9004H75.2754C74.9609 29.9004 74.6943 29.8115 74.4756 29.6338C74.2568 29.4424 74.1475 29.2168 74.1475 28.957C74.1475 28.7109 74.2568 28.4922 74.4756 28.3008C74.6943 28.123 74.9609 28.0342 75.2754 28.0342H81.9814C82.2959 28.0342 82.5625 28.1299 82.7812 28.3213C83 28.499 83.1094 28.7109 83.1094 28.957Z" fill="white"/>
</svg>
