<svg width="18" height="19" viewBox="0 0 18 19" fill="none" xmlns="http://www.w3.org/2000/svg">
<path d="M11.5175 17.0713C10.2918 18.297 8.81869 18.9098 7.09807 18.9098C5.37744 18.9098 3.9043 18.297 2.67865 17.0713C1.453 15.8457 0.84017 14.3725 0.840171 12.6519C0.840171 10.9313 1.453 9.45814 2.67865 8.23248L9.21939 1.69175C10.1033 0.807863 11.1639 0.365921 12.4014 0.365921C13.6388 0.365921 14.6995 0.807863 15.5833 1.69175C16.4672 2.57563 16.9092 3.63629 16.9092 4.87373C16.9092 6.11116 16.4672 7.17182 15.5833 8.05571L9.39616 14.2429C8.85405 14.785 8.20587 15.0561 7.45162 15.0561C6.69737 15.0561 6.04919 14.785 5.50708 14.2429C4.96496 13.7008 4.6939 13.0526 4.6939 12.2983C4.6939 11.5441 4.96496 10.8959 5.50708 10.3538L11.3407 4.52017C11.5411 4.31983 11.7768 4.21965 12.0478 4.21965C12.3189 4.21965 12.5546 4.31983 12.7549 4.52017C12.9553 4.72052 13.0554 4.95622 13.0554 5.22728C13.0554 5.49834 12.9553 5.73404 12.7549 5.93439L6.92129 11.768C6.76808 11.9212 6.69148 12.098 6.69148 12.2983C6.69148 12.4987 6.76808 12.6755 6.92129 12.8287C7.0745 12.9819 7.25127 13.0585 7.45162 13.0585C7.65197 13.0585 7.82874 12.9819 7.98195 12.8287L14.1691 6.64149C14.6523 6.13473 14.8969 5.54253 14.9028 4.86489C14.9087 4.18724 14.6641 3.60093 14.1691 3.10596C13.6742 2.61098 13.0849 2.3635 12.4014 2.3635C11.7178 2.3635 11.1286 2.61098 10.6336 3.10596L4.09286 9.6467C3.24433 10.4717 2.82302 11.4704 2.82891 12.6431C2.8348 13.8157 3.25612 14.8204 4.09286 15.6571C4.91782 16.4821 5.91072 16.8916 7.07155 16.8857C8.23238 16.8798 9.24296 16.4703 10.1033 15.6571L16.2905 9.46992C16.4908 9.26957 16.7265 9.1694 16.9976 9.1694C17.2686 9.1694 17.5043 9.26957 17.7047 9.46992C17.905 9.67027 18.0052 9.90597 18.0052 10.177C18.0052 10.4481 17.905 10.6838 17.7047 10.8841L11.5175 17.0713Z" fill="currentColor"/>
</svg>
