<svg width="25" height="25" viewBox="0 0 25 25" fill="none" xmlns="http://www.w3.org/2000/svg">
<mask id="mask0_173_4798" style="mask-type:alpha" maskUnits="userSpaceOnUse" x="0" y="0" width="25" height="25">
<rect x="0.0722656" y="0.5" width="24" height="24" fill="currentColor"/>
</mask>
<g mask="url(#mask0_173_4798)">
<path d="M9.57227 16.5C7.7556 16.5 6.2181 15.8708 4.95977 14.6125C3.70143 13.3542 3.07227 11.8167 3.07227 10C3.07227 8.18333 3.70143 6.64583 4.95977 5.3875C6.2181 4.12917 7.7556 3.5 9.57227 3.5C11.3889 3.5 12.9264 4.12917 14.1848 5.3875C15.4431 6.64583 16.0723 8.18333 16.0723 10C16.0723 10.7333 15.9556 11.425 15.7223 12.075C15.4889 12.725 15.1723 13.3 14.7723 13.8L20.3723 19.4C20.5556 19.5833 20.6473 19.8167 20.6473 20.1C20.6473 20.3833 20.5556 20.6167 20.3723 20.8C20.1889 20.9833 19.9556 21.075 19.6723 21.075C19.3889 21.075 19.1556 20.9833 18.9723 20.8L13.3723 15.2C12.8723 15.6 12.2973 15.9167 11.6473 16.15C10.9973 16.3833 10.3056 16.5 9.57227 16.5ZM9.57227 14.5C10.8223 14.5 11.8848 14.0625 12.7598 13.1875C13.6348 12.3125 14.0723 11.25 14.0723 10C14.0723 8.75 13.6348 7.6875 12.7598 6.8125C11.8848 5.9375 10.8223 5.5 9.57227 5.5C8.32227 5.5 7.25977 5.9375 6.38477 6.8125C5.50977 7.6875 5.07227 8.75 5.07227 10C5.07227 11.25 5.50977 12.3125 6.38477 13.1875C7.25977 14.0625 8.32227 14.5 9.57227 14.5Z" fill="currentColor"/>
</g>
</svg>
