<svg width="24" height="24" viewBox="0 0 24 24" fill="none" xmlns="http://www.w3.org/2000/svg">
<mask id="mask0_705_773" style="mask-type:alpha" maskUnits="userSpaceOnUse" x="0" y="0" width="24" height="24">
<rect width="24" height="24" fill="#D9D9D9"/>
</mask>
<g mask="url(#mask0_705_773)">
<path d="M8.9998 12.9998C8.71647 12.9998 8.47897 12.904 8.2873 12.7123C8.09564 12.5206 7.9998 12.2831 7.9998 11.9998V5.8248L6.1248 7.6998C5.94147 7.88314 5.7123 7.9748 5.4373 7.9748C5.1623 7.9748 4.9248 7.88314 4.7248 7.6998C4.5248 7.4998 4.4248 7.2623 4.4248 6.9873C4.4248 6.7123 4.5248 6.4748 4.7248 6.2748L8.2998 2.6998C8.3998 2.5998 8.50814 2.52897 8.6248 2.4873C8.74147 2.44564 8.86647 2.4248 8.9998 2.4248C9.13314 2.4248 9.25814 2.44564 9.3748 2.4873C9.49147 2.52897 9.5998 2.5998 9.6998 2.6998L13.2998 6.2998C13.4998 6.4998 13.5956 6.73314 13.5873 6.9998C13.579 7.26647 13.4748 7.4998 13.2748 7.6998C13.0748 7.88314 12.8415 7.97897 12.5748 7.9873C12.3081 7.99564 12.0748 7.8998 11.8748 7.6998L9.9998 5.8248V11.9998C9.9998 12.2831 9.90397 12.5206 9.7123 12.7123C9.52064 12.904 9.28314 12.9998 8.9998 12.9998ZM14.9998 21.5748C14.8665 21.5748 14.7415 21.554 14.6248 21.5123C14.5081 21.4706 14.3998 21.3998 14.2998 21.2998L10.6998 17.6998C10.4998 17.4998 10.404 17.2665 10.4123 16.9998C10.4206 16.7331 10.5248 16.4998 10.7248 16.2998C10.9248 16.1165 11.1581 16.0206 11.4248 16.0123C11.6915 16.004 11.9248 16.0998 12.1248 16.2998L13.9998 18.1748V11.9998C13.9998 11.7165 14.0956 11.479 14.2873 11.2873C14.479 11.0956 14.7165 10.9998 14.9998 10.9998C15.2831 10.9998 15.5206 11.0956 15.7123 11.2873C15.904 11.479 15.9998 11.7165 15.9998 11.9998V18.1748L17.8748 16.2998C18.0581 16.1165 18.2873 16.0248 18.5623 16.0248C18.8373 16.0248 19.0748 16.1165 19.2748 16.2998C19.4748 16.4998 19.5748 16.7373 19.5748 17.0123C19.5748 17.2873 19.4748 17.5248 19.2748 17.7248L15.6998 21.2998C15.5998 21.3998 15.4915 21.4706 15.3748 21.5123C15.2581 21.554 15.1331 21.5748 14.9998 21.5748Z" fill="currentColor"/>
</g>
</svg>
